<svg xmlns="http://www.w3.org/2000/svg" viewBox="0 0 512 512"><defs><style>.a,.c{fill:#fff}.a,.b,.d,.e,.f,.g,.h,.i{stroke:#1d568f;stroke-miterlimit:10;stroke-width:5px}.b,.d,.e,.f,.g,.h,.i{fill:none}.c{opacity:.8}.d{stroke-dasharray:11.94 11.94}.e{stroke-dasharray:11 11}.f{stroke-dasharray:11.78 11.78}.g{stroke-dasharray:11.27 11.27}.h{stroke-dasharray:11.65 11.65}.i{stroke-dasharray:11.81 11.81}</style></defs><title>logo</title><path d="M247.16,51,41.5,130.92V380.39l206,89.61,206-89.61V130.92ZM395.5,337.54l-147.62,64-147.38-64V154.4L247.66,94.78,395.5,154.4Z" class="a"/><line x1="43.13" x2="102.02" y1="130.92" y2="154.4" class="b"/><line x1="396.74" x2="454.87" y1="154.4" y2="130.92" class="b"/><line x1="249.29" x2="248.99" y1="401.58" y2="470" class="b"/><polygon points="249.45 356.79 359 309.25 359 173.31 249.29 129.57 140.08 173.31 142.73 309.25 249.45 356.79" class="c"/><polyline points="243.97 354.35 249.45 356.79 254.96 354.4" class="b"/><line x1="265.91" x2="348.02" y1="349.65" y2="314.02" class="d"/><polyline points="353 311.51 358.5 309.25 358.5 303" class="b"/><line x1="358.5" x2="358.5" y1="292" y2="185" class="e"/><polyline points="358.5 179 358.5 173.31 352.93 170.93" class="b"/><polyline points="342.49 166.72 249.29 129.57 151.12 168.89" class="f"/><polyline points="145.65 171.08 140.08 173.31 140.2 179.31" class="b"/><line x1="140.42" x2="142.51" y1="190.57" y2="297.62" class="g"/><polyline points="142.62 303.25 142.73 309.25 148.21 311.69" class="b"/><line x1="158.85" x2="238.65" y1="316.43" y2="351.98" class="h"/><line x1="248.5" x2="248.5" y1="357" y2="351" class="b"/><line x1="248.5" x2="248.5" y1="340" y2="231" class="e"/><line x1="248.5" x2="248.5" y1="225" y2="219" class="b"/><line x1="140.08" x2="145.63" y1="173.31" y2="175.58" class="b"/><polyline points="156.56 180.07 248.99 218 347.97 177.79" class="i"/><line x1="353.44" x2="359" y1="175.56" y2="173.31" class="b"/></svg>