<svg xmlns="http://www.w3.org/2000/svg" viewBox="0 0 512 512"><defs><style>.a{fill:#1d568f}.b,.c,.e,.f,.g,.h,.i,.j{fill:none;stroke-miterlimit:10;stroke-width:2px}.b{stroke:#f2f2f2}.c,.e,.f,.g,.h,.i,.j{stroke:#fff}.d{fill:#fff;opacity:.35}.e{stroke-dasharray:11.94 11.94}.f{stroke-dasharray:11 11}.g{stroke-dasharray:11.78 11.78}.h{stroke-dasharray:11.27 11.27}.i{stroke-dasharray:11.65 11.65}.j{stroke-dasharray:11.81 11.81}</style></defs><title>logo.blue</title><rect width="512" height="512" class="a"/><path d="M248.66,51,43,130.92V380.39L249,470l206-89.61V130.92ZM397,337.54l-147.62,64L102,337.54V154.4L249.16,94.78,397,154.4Z" class="b"/><line x1="43.13" x2="102.02" y1="130.92" y2="154.4" class="c"/><line x1="396.74" x2="454.87" y1="154.4" y2="130.92" class="c"/><line x1="249.29" x2="248.99" y1="401.58" y2="470" class="c"/><polygon points="249.45 356.79 359 309.25 359 173.31 249.29 129.57 140.08 173.31 142.73 309.25 249.45 356.79" class="d"/><polyline points="243.97 354.35 249.45 356.79 254.96 354.4" class="c"/><line x1="265.91" x2="348.02" y1="349.65" y2="314.02" class="e"/><polyline points="353.5 311.51 359 309.25 359 303" class="c"/><line x1="359" x2="359" y1="292" y2="185" class="f"/><polyline points="359 179 359 173.31 353.43 170.93" class="c"/><polyline points="342.49 166.72 249.29 129.57 151.12 168.89" class="g"/><polyline points="145.65 171.08 140.08 173.31 140.2 179.31" class="c"/><line x1="140.42" x2="142.51" y1="190.57" y2="297.62" class="h"/><polyline points="142.62 303.25 142.73 309.25 148.21 311.69" class="c"/><line x1="158.85" x2="238.65" y1="316.43" y2="351.98" class="i"/><line x1="249" x2="249" y1="357" y2="351" class="c"/><line x1="249" x2="249" y1="340" y2="231" class="f"/><line x1="249" x2="249" y1="225" y2="219" class="c"/><line x1="140.08" x2="145.63" y1="173.31" y2="175.58" class="c"/><polyline points="156.56 180.07 248.99 218 347.97 177.79" class="j"/><line x1="353.44" x2="359" y1="175.56" y2="173.31" class="c"/></svg>