<svg xmlns="http://www.w3.org/2000/svg" viewBox="0 0 600 250"><defs><style>.a,.c{fill:#fff}.a,.b,.d,.e,.f,.g,.h,.i{stroke:#1d568f;stroke-miterlimit:10;stroke-width:4px}.b,.d,.e,.f,.g,.h,.i{fill:none}.c{opacity:.8}.d{stroke-dasharray:10.88 10.88}.e{stroke-dasharray:13 13}.f{stroke-dasharray:13.23 13.23}.g{stroke-dasharray:12.72 12.72}.h{stroke-dasharray:10.59 10.59}.i{stroke-dasharray:10.86 10.86}.j{fill:#1d568f}</style></defs><title>text.logo</title><path d="M144.31,9,30,53.45V192.17L144.48,242,259,192.17V53.45ZM226,168.34,144.43,204,63,168.34V66.5l81.31-33.15L226,66.5Z" class="a"/><line x1="31.16" x2="63.9" y1="53.45" y2="66.5" class="b"/><line x1="227.79" x2="260.12" y1="66.5" y2="53.45" class="b"/><line x1="145.8" x2="145.63" y1="203.95" y2="242" class="b"/><polygon points="145.99 179.05 207 152.61 207 77.01 145.9 52.69 85.12 77.01 86.61 152.61 145.99 179.05" class="c"/><polyline points="140.41 176.6 145.89 179.05 151.39 176.66" class="b"/><line x1="161.37" x2="196.31" y1="172.33" y2="157.17" class="d"/><polyline points="201.5 155.19 207 152.61 207 147" class="b"/><line x1="207" x2="207" y1="134" y2="89" class="e"/><polyline points="207 83 207 77.01 201.43 74.78" class="b"/><polyline points="188.94 69.89 145.8 52.69 96.78 72.32" class="f"/><polyline points="90.64 74.78 85.07 77.01 85.19 83.01" class="b"/><line x1="85.43" x2="86.3" y1="95.73" y2="140.25" class="g"/><polyline points="86.43 146.61 86.54 152.61 92.02 155.05" class="b"/><line x1="101.7" x2="135.57" y1="159.36" y2="174.45" class="h"/><line x1="146" x2="146" y1="179" y2="173" class="b"/><line x1="146" x2="146" y1="160" y2="115" class="e"/><line x1="146" x2="146" y1="108" y2="102" class="b"/><line x1="85.07" x2="90.62" y1="77.01" y2="79.29" class="b"/><polyline points="100.67 83.42 145.63 101.87 196.22 81.32" class="i"/><line x1="201.25" x2="206.81" y1="79.27" y2="77.01" class="b"/><path d="M310.44,102.85a8.29,8.29,0,0,0-3-6.73q-3-2.48-10.93-4.71t-11.6-4.87a11.81,11.81,0,0,1-.37-19.32q4.83-3.67,12.36-3.67a20.5,20.5,0,0,1,9.12,2A14.94,14.94,0,0,1,312.27,71a14.41,14.41,0,0,1,2.21,7.84h-4.36a10.76,10.76,0,0,0-3.59-8.45q-3.59-3.19-9.63-3.19-5.87,0-9.35,2.62a8.19,8.19,0,0,0-3.48,6.85A7.75,7.75,0,0,0,287.2,83q3.13,2.47,10,4.35a47.1,47.1,0,0,1,10.44,3.91A14.88,14.88,0,0,1,313,96.13a12.09,12.09,0,0,1,1.79,6.64,11.57,11.57,0,0,1-4.83,9.7q-4.83,3.66-12.74,3.66a25,25,0,0,1-9.93-1.93,15.17,15.17,0,0,1-6.86-5.41,14,14,0,0,1-2.34-8h4.32a10.22,10.22,0,0,0,4,8.54q4,3.13,10.76,3.13,6,0,9.6-2.64A8.24,8.24,0,0,0,310.44,102.85Z" class="j"/><path d="M337.86,116.13a16.51,16.51,0,0,1-8.77-2.39,16.29,16.29,0,0,1-6.1-6.66,20.77,20.77,0,0,1-2.18-9.58V96a22.38,22.38,0,0,1,2.13-9.88,16.92,16.92,0,0,1,5.92-6.91,14.61,14.61,0,0,1,8.23-2.51,13.73,13.73,0,0,1,11,4.73q4.06,4.73,4.06,12.92v2.36H325v.81a15.93,15.93,0,0,0,3.71,10.78,11.8,11.8,0,0,0,9.33,4.31,13.71,13.71,0,0,0,6-1.23,13.22,13.22,0,0,0,4.69-3.94l2.64,2Q346.68,116.13,337.86,116.13Zm-.77-35.86a10.52,10.52,0,0,0-8,3.48,16.08,16.08,0,0,0-4,9.35h22.82v-.46a14,14,0,0,0-3.13-8.93A9.7,9.7,0,0,0,337.09,80.27Z" class="j"/><path d="M358.64,96.06q0-8.93,4-14.15a12.83,12.83,0,0,1,10.81-5.22q7.7,0,11.71,5.87l.21-5.17h3.94v52.66H385V110.72q-4.15,5.41-11.71,5.41a12.75,12.75,0,0,1-10.69-5.27q-4-5.27-4-14.24Zm4.25.74q0,7.38,3,11.58a9.54,9.54,0,0,0,8.24,4.2A11.42,11.42,0,0,0,385,106V87.38a12.33,12.33,0,0,0-4.38-5.26,11.5,11.5,0,0,0-6.49-1.85,9.62,9.62,0,0,0-8.3,4.2Q362.89,88.68,362.89,96.8Z" class="j"/><path d="M424.94,110.61q-3.8,5.52-12.13,5.52-6.08,0-9.25-3.53t-3.23-10.46V77.39h4.18v24.22q0,10.86,8.79,10.86,9.14,0,11.57-7.56V77.39h4.22v38H425Z" class="j"/><path d="M454.75,116.13a16.51,16.51,0,0,1-8.77-2.39,16.29,16.29,0,0,1-6.1-6.66,20.77,20.77,0,0,1-2.18-9.58V96a22.38,22.38,0,0,1,2.13-9.88,16.92,16.92,0,0,1,5.92-6.91A14.61,14.61,0,0,1,454,76.69a13.73,13.73,0,0,1,11,4.73Q469,86.15,469,94.34v2.36H441.89v.81a15.93,15.93,0,0,0,3.71,10.78,11.8,11.8,0,0,0,9.33,4.31,13.71,13.71,0,0,0,6-1.23,13.22,13.22,0,0,0,4.69-3.94l2.64,2Q463.58,116.13,454.75,116.13ZM454,80.27a10.52,10.52,0,0,0-8,3.48,16.08,16.08,0,0,0-4,9.35h22.82v-.46a14,14,0,0,0-3.13-8.93A9.7,9.7,0,0,0,454,80.27Z" class="j"/><path d="M481.93,115.43h-4.22v-54h4.22Z" class="j"/><path d="M493.11,66.41a2.82,2.82,0,0,1,.77-2,2.76,2.76,0,0,1,2.11-.82,2.82,2.82,0,0,1,2.13.82,2.78,2.78,0,0,1,.79,2,2.73,2.73,0,0,1-.79,2,2.85,2.85,0,0,1-2.13.8,2.79,2.79,0,0,1-2.11-.8A2.76,2.76,0,0,1,493.11,66.41Zm5,49h-4.22v-38h4.22Z" class="j"/><path d="M512.27,111.88H537v3.55H507.07v-3.09L530.13,81H507.77V77.39h27.67v3.16Z" class="j"/><path d="M558.68,116.13a16.51,16.51,0,0,1-8.77-2.39,16.29,16.29,0,0,1-6.1-6.66,20.77,20.77,0,0,1-2.18-9.58V96a22.38,22.38,0,0,1,2.13-9.88,16.92,16.92,0,0,1,5.92-6.91,14.61,14.61,0,0,1,8.23-2.51,13.73,13.73,0,0,1,11,4.73q4.06,4.73,4.06,12.92v2.36H545.81v.81a15.93,15.93,0,0,0,3.71,10.78,11.8,11.8,0,0,0,9.33,4.31,13.71,13.71,0,0,0,6-1.23,13.22,13.22,0,0,0,4.69-3.94l2.64,2Q567.5,116.13,558.68,116.13Zm-.77-35.86a10.52,10.52,0,0,0-8,3.48,16.08,16.08,0,0,0-4,9.35h22.82v-.46a14,14,0,0,0-3.13-8.93A9.7,9.7,0,0,0,557.9,80.27Z" class="j"/><path d="M287.2,129.24l18.88,45.18L325,129.24h5.77v51.19h-4.32V158.14l.35-22.85-19.05,45.14h-3.34l-19-45,.35,22.54v22.43h-4.32V129.24Z" class="j"/><path d="M340.46,160.85a22.38,22.38,0,0,1,2.13-9.88,16,16,0,0,1,14.82-9.28,15.65,15.65,0,0,1,12.3,5.33q4.71,5.33,4.71,14.12V162a22.58,22.58,0,0,1-2.13,9.93,15.88,15.88,0,0,1-6,6.8,16.44,16.44,0,0,1-8.82,2.39,15.66,15.66,0,0,1-12.29-5.33q-4.73-5.33-4.73-14.12Zm4.22,1.16a17.26,17.26,0,0,0,3.53,11.2,12,12,0,0,0,18.49,0q3.53-4.38,3.53-11.55v-.81a19.35,19.35,0,0,0-1.62-8,13,13,0,0,0-4.54-5.61,11.59,11.59,0,0,0-6.68-2,11.24,11.24,0,0,0-9.18,4.41q-3.55,4.41-3.55,11.55Z" class="j"/><path d="M397.17,177.58a11.11,11.11,0,0,0,7.37-2.48,8.72,8.72,0,0,0,3.22-6.42h4a11.91,11.91,0,0,1-2.18,6.35,13.66,13.66,0,0,1-5.33,4.48,16.05,16.05,0,0,1-7.12,1.62q-7.49,0-11.87-5.2t-4.38-14v-1.27a23.78,23.78,0,0,1,2-9.95,15.17,15.17,0,0,1,5.64-6.68,15.58,15.58,0,0,1,8.6-2.36,14.67,14.67,0,0,1,10.32,3.73,13.59,13.59,0,0,1,4.34,9.81h-4a10.18,10.18,0,0,0-10.62-9.95,10.49,10.49,0,0,0-8.84,4.11q-3.15,4.11-3.15,11.53v1.23q0,7.28,3.15,11.36A10.56,10.56,0,0,0,397.17,177.58Z" class="j"/><path d="M429.23,161.27l-4.82,4.64v14.52H420.2v-54h4.22V161l4-4.29,14.55-14.31h5.31l-16.14,16,17.54,22h-5Z" class="j"/></svg>